<svg xmlns="http://www.w3.org/2000/svg" viewBox="0 0 98.11 63"><defs><style>.cls-1{fill:#fff;}.cls-2,.cls-3{fill:#e6001f;}.cls-3{stroke:#e6001f;stroke-width:1.38px;}.cls-4{fill:#004199;}</style></defs><g id="레이어_2" data-name="레이어 2"><g id="Layer_1" data-name="Layer 1"><path class="cls-1" d="M62.52,0A23.42,23.42,0,0,0,49.05,4.23,23.57,23.57,0,1,0,35.58,47.15a23.47,23.47,0,0,0,13.47-4.23A23.58,23.58,0,1,0,62.52,0Z"/><path class="cls-2" d="M84.3,14.6A21.76,21.76,0,0,0,83,11.9l-25,19-8.92,6.79-3.48,2.2L34.22,47.09c.45,0,.91,0,1.37,0a23.85,23.85,0,0,0,4.26-.38l6.58-6,2.62-2.37,8.19-5.53Z"/><path class="cls-2" d="M84.72,15.68,49.29,43.07a23.56,23.56,0,0,0,36.78-19.5A23.73,23.73,0,0,0,84.72,15.68Z"/><path class="cls-2" d="M35.59,0a23.56,23.56,0,0,0-22.2,31.45L48.82,4.08A23.46,23.46,0,0,0,35.59,0Z"/><path class="cls-2" d="M49.05,19.07l8-5.26,16.66-11a23.91,23.91,0,0,0-3-1.38L56.44,12.6l-7.39,5.8L39,25.13,18,39.22a23.79,23.79,0,0,0,2.14,2.12l19-14.66Z"/><path class="cls-2" d="M49.05,23.91l9.35-6.23L77.22,5.17a23.43,23.43,0,0,0-2.56-1.78L58,16.3l-9,6.93L39.7,29.46,20.89,42a22.5,22.5,0,0,0,2.56,1.78L40.1,30.85Z"/><path class="cls-2" d="M49.05,28.74,59.1,22l21-14.08A22.44,22.44,0,0,0,78,5.81l-19,14.65-9.89,7.6-8,5.27-16.66,11a23.38,23.38,0,0,0,3.06,1.37l14.2-11.15Z"/><path class="cls-2" d="M49.05,14.24l6-3.91L69.38,1A24,24,0,0,0,65.65.22L54.34,9.32l-5.29,4.24L39.2,20.2,15.62,36.08a24.15,24.15,0,0,0,1.74,2.41L39,21.92Z"/><path class="cls-2" d="M49.05,9.4l3.48-2.19L63.87.06c-.45,0-.9,0-1.36,0A23.6,23.6,0,0,0,58.28.4l-6.61,6L49.05,8.73l-8.18,5.53L13.81,32.55a21.76,21.76,0,0,0,1.32,2.7l25-19.06Z"/><path class="cls-2" d="M49.05,33.58l9.86-6.64L82.49,11.07a24.15,24.15,0,0,0-1.74-2.41L59.09,25.23l-10,7.67-6,3.91-14.31,9.3a23.13,23.13,0,0,0,3.73.81l11.31-9.09Z"/><path class="cls-3" d="M27.35,23.47a6.77,6.77,0,0,0,6.76,6.77H41.5V26.58H34.43a3.1,3.1,0,0,1-2.49-1.28h9.58V21.64H31.94a3.08,3.08,0,0,1,2.49-1.27h7.14V16.7H34.11A6.77,6.77,0,0,0,27.35,23.47Z"/><path class="cls-3" d="M68.58,16.71H59.34v3.66h9.24a1.28,1.28,0,1,1,0,2.55h-9.2v3.66h0v3.66h4.17V26.58h5a4.94,4.94,0,1,0,0-9.87Z"/><path class="cls-3" d="M54.83,25.51a1.27,1.27,0,1,1-2.54,0V16.7H48.62v8.81a1.27,1.27,0,1,1-2.54,0V16.7H42.41v8.81a4.93,4.93,0,0,0,8,3.84,4.93,4.93,0,0,0,8-3.84V16.7H54.83Z"/><path class="cls-1" d="M27.35,23.47a6.77,6.77,0,0,0,6.76,6.77H41.5V26.58H34.43a3.1,3.1,0,0,1-2.49-1.28h9.58V21.64H31.94a3.08,3.08,0,0,1,2.49-1.27h7.14V16.7H34.11A6.77,6.77,0,0,0,27.35,23.47Z"/><path class="cls-1" d="M68.58,16.71H59.34v3.66h9.24a1.28,1.28,0,1,1,0,2.55h-9.2v3.66h0v3.66h4.17V26.58h5a4.94,4.94,0,1,0,0-9.87Z"/><path class="cls-1" d="M54.83,25.51a1.27,1.27,0,1,1-2.54,0V16.7H48.62v8.81a1.27,1.27,0,1,1-2.54,0V16.7H42.41v8.81a4.93,4.93,0,0,0,8,3.84,4.93,4.93,0,0,0,8-3.84V16.7H54.83Z"/><path class="cls-4" d="M25.12,54.68a1.56,1.56,0,0,0-1.61-1.51h-9v1.49h8.62l.18.05v1.18H13.88v1.5h5.21a1,1,0,0,0-.24.64,1,1,0,0,0,.23.63H14.51v1.49h8.62l.18,0v2.17h1.81V60.17a1.56,1.56,0,0,0-1.61-1.51H20.59a.94.94,0,0,0,.23-.63,1,1,0,0,0-.24-.64h5.21v-1.5h-.67Z"/><path class="cls-4" d="M12.08,54.77a1,1,0,0,0-.81.4V52.84H9.46v8h-7V59.39H.66v1.46a1.56,1.56,0,0,0,1.61,1.51h9V56.45a1.06,1.06,0,0,0,.81.39,1,1,0,0,0,0-2.07Z"/><path class="cls-4" d="M1.27,56.73a2.7,2.7,0,1,0,5-1.35H7.94V53.89H4.5A1,1,0,0,0,5,53.06a1,1,0,1,0-2,0,1,1,0,0,0,.45.83H0v1.49H1.63A2.7,2.7,0,0,0,1.27,56.73ZM4,57.84a1.11,1.11,0,1,1,1.11-1.11A1.11,1.11,0,0,1,4,57.84Z"/><polygon class="cls-4" points="70.15 58.37 72.36 54.69 74.55 58.37 76.53 58.37 74.33 54.66 76.32 54.66 76.32 53.17 68.38 53.17 68.38 54.66 70.39 54.66 68.16 58.37 70.15 58.37"/><path class="cls-4" d="M79.66,52.84H77.85V55a1,1,0,1,0,0,1.28v4.57h-7v-1.8H69.05v1.79a1.56,1.56,0,0,0,1.61,1.5h9v-1.5h0Z"/><path class="cls-4" d="M50.46,54.83a1,1,0,1,0,0,1.28v6.25h1.81V52.84H50.46Z"/><polygon class="cls-4" points="45.54 53.17 44.38 53.17 43.56 53.17 40.68 57.97 42.66 57.97 44.96 54.14 47.26 57.97 49.25 57.97 46.37 53.17 45.54 53.17"/><path class="cls-4" d="M62.38,56.92v-.46h0V53.17H60.57v.54H56.25v-.54H54.44v2.35a1.44,1.44,0,0,0,1.49,1.4ZM60.57,55v.6H56.25V55Z"/><path class="cls-4" d="M66.52,54.77a1,1,0,0,0-.81.4V52.84H63.9v4.62H55.1v1.3h8.8v.5H55.1v1.3h0V61a1.45,1.45,0,0,0,1.5,1.4h9.11V61.05h-8.8v-.49h8.8v-.13h0v-4a1.06,1.06,0,0,0,.81.39,1,1,0,0,0,0-2.07Z"/><path class="cls-4" d="M34.24,57h4.4v-1.5H29.85v-.83h8.79V53.17H28v2.31A1.56,1.56,0,0,0,29.65,57h2.78v.53H27.38V59H31a2.66,2.66,0,0,0-.33,1.29,2.7,2.7,0,0,0,5.4,0A2.66,2.66,0,0,0,35.71,59H39.3V57.52H34.24Zm-.9,4.42a1.11,1.11,0,1,1,1.11-1.11A1.11,1.11,0,0,1,33.34,61.41Z"/><rect class="cls-4" x="97.6" y="52.5" width="0.5" height="10.19"/><rect class="cls-4" x="82.99" y="52.5" width="0.5" height="10.19"/><polygon class="cls-4" points="84.59 60.15 89.64 60.15 89.64 62.35 91.45 62.35 91.45 60.15 96.51 60.15 96.51 58.66 84.59 58.66 84.59 60.15"/><polygon class="cls-4" points="87.25 57.97 90.55 54.67 93.85 57.97 96.26 57.97 92.95 54.66 95.85 54.66 95.85 53.17 85.25 53.17 85.25 54.66 88.15 54.66 84.84 57.97 87.25 57.97"/></g></g></svg>